<svg width="37" height="42" viewBox="0 0 37 42" fill="none" xmlns="http://www.w3.org/2000/svg">
<path d="M7.33069 2.47275C9.81263 1.66688 16.8516 4.52353 17.7533 5.55122C18.649 6.57366 12.8012 6.99628 9.62626 7.46681C6.35026 7.95966 3.08279 8.54831 2.18963 7.51734C1.29713 6.50081 4.85204 3.28388 7.33069 2.47275Z" fill="#0E692D"/>
<path d="M24.4129 0.681155C27.2492 -0.147032 34.8551 3.25891 35.7739 4.41916C36.6834 5.59384 30.1432 5.88653 26.5732 6.31769C22.8779 6.76 19.1767 7.31519 18.2664 6.14575C17.3503 4.9855 21.5864 1.50081 24.4148 0.681155" fill="#0E692D"/>
<path d="M7.76514 5.38579C9.46942 4.26492 16.8043 5.41138 18.0407 6.11554C19.2889 6.81379 14.5593 8.22801 12.1016 9.19401C9.57442 10.1935 7.09839 11.2894 5.85348 10.5741C4.6007 9.87848 6.06807 6.51782 7.76645 5.38579" fill="#0E692D"/>
<path d="M14.6413 0.0590256C17.1226 0.281494 19.7338 4.62193 19.4917 5.65028C19.258 6.67271 14.6695 5.09246 11.9678 4.40274C9.18525 3.69531 6.31481 3.0699 6.56287 2.04746C6.80241 1.01387 12.1541 -0.160818 14.6413 0.0590256Z" fill="#0E692D"/>
<path d="M23.1398 4.91198C25.6302 5.12592 28.2388 9.46964 27.996 10.4947C27.7539 11.523 23.168 9.93951 20.4662 9.25242C17.6916 8.54826 14.8126 7.91432 15.0607 6.88926C15.2956 5.8642 20.6585 4.69542 23.1398 4.91395" fill="#0E692D"/>
<path d="M0.0922546 33.8862C0.0922546 40.0753 8.93719 41.878 18.399 41.878C27.8602 41.878 36.7084 40.0753 36.7084 33.8862C36.7084 27.7089 27.8608 9.2558 18.399 9.2558C8.93719 9.2558 0.0922546 27.7095 0.0922546 33.8862Z" fill="#0E692D"/>
</svg>
