<svg width="541" height="212" viewBox="0 0 541 212" fill="none" xmlns="http://www.w3.org/2000/svg">
<g clip-path="url(#clip0)">
<path d="M69.4325 104.936C66.3254 105.764 63.0988 107.182 59.8721 108.245C56.6455 109.427 53.6579 110.845 50.7897 112.263C44.934 115.217 39.6758 118.881 35.7321 123.017C31.7884 127.153 29.2788 131.525 28.2033 136.134C27.1277 140.624 27.3667 145.706 28.6813 150.905C29.0398 152.205 29.3983 153.505 29.8763 154.923C30.1154 155.632 30.3544 156.223 30.5934 156.932L31.4299 159.059C32.5055 161.777 33.7005 164.14 35.0151 166.031C36.3296 167.922 37.7637 169.458 39.1977 170.758C40.7513 172.058 42.3049 173.003 43.9779 173.712C45.7705 174.421 47.5631 174.894 49.4752 175.13C51.3873 175.367 53.4189 175.367 55.4504 175.13C59.5136 174.658 63.6963 173.24 67.162 171.113C68.835 170.049 70.3886 168.867 71.7031 167.449C73.0177 166.031 74.0933 164.613 74.9298 162.959C75.7663 161.304 76.3638 159.532 76.7224 157.523C77.0809 155.514 77.0809 153.505 76.8419 151.023C76.7224 150.432 76.7224 149.842 76.6029 149.133L76.1248 146.533L75.1688 140.979C74.4518 137.315 73.8542 133.652 73.3762 129.871C72.3007 122.426 71.4641 114.981 71.1056 107.418C70.6276 99.855 70.6276 92.292 70.8666 84.729C71.2251 77.166 71.9422 69.4849 73.2567 62.04C75.8858 47.0322 80.666 32.0244 88.5534 18.671C90.7045 15.0077 95.6042 13.7078 99.3088 15.9531C102.655 17.962 104.089 21.9798 102.655 25.525V25.6431C97.7553 37.933 95.4847 51.1682 95.0067 64.5216C94.7676 71.1393 95.0067 77.875 95.4847 84.6108C95.9627 91.3466 96.9187 97.9642 98.1138 104.7C99.3088 111.318 100.743 118.053 102.416 124.671C103.253 127.98 104.089 131.289 105.165 134.597L106.599 139.561L107.316 142.16C107.674 143.224 107.913 144.406 108.152 145.587C109.228 150.196 109.825 155.278 109.467 160.477C109.228 165.558 108.152 170.758 106.36 175.839C104.448 180.921 101.818 185.529 98.4723 189.665C95.2457 193.802 91.302 197.347 87.1193 200.419C78.6345 206.328 68.7155 209.873 58.3186 210.582C48.0411 211.291 37.1662 209.046 27.8448 203.728C23.184 201.128 18.8819 197.583 15.4162 193.802C11.9506 189.902 9.20194 185.648 6.93134 181.275C4.78025 176.785 3.34619 172.531 2.39015 168.395C1.43411 164.377 0.478065 160.004 0.11955 155.632C-0.238966 151.142 -0.238966 146.533 0.35856 141.924C0.956086 137.315 2.27064 132.589 4.18273 128.098C6.09481 123.726 8.72392 119.59 11.8311 116.045C14.9382 112.499 18.4038 109.545 21.989 107.063C29.2788 102.1 37.0466 99.146 44.8145 97.2552C46.7266 96.7825 48.6387 96.3098 50.6702 95.9553C52.5823 95.6008 54.4944 95.2463 56.526 95.1281C58.4381 94.8918 60.4697 94.7736 62.3817 94.6554C63.3378 94.6554 64.2938 94.4191 65.2499 94.5373H68.2375C71.3446 94.5373 73.8542 97.0189 73.8542 100.091C73.8542 102.691 72.1812 104.818 69.7911 105.409L69.4325 104.936Z" fill="#D1D3D4"/>
<path d="M110.781 0C107.674 12.9989 105.642 30.3701 107.316 43.0145L93.931 25.0524L72.0615 19.7347C84.4901 16.4259 99.9062 7.9175 110.781 0Z" fill="#D1D3D4"/>
<path d="M82.6976 110.491C79.471 110.609 75.8858 111.2 72.5397 111.436C69.1935 111.79 65.8474 112.499 62.6207 113.327C56.1675 114.863 50.1922 117.226 45.2925 120.299C40.3928 123.371 36.9271 127.153 34.776 131.525C32.7444 135.661 31.6689 140.743 31.7884 146.178C31.7884 147.596 31.9079 148.896 32.0274 150.314C32.0274 151.023 32.1469 151.732 32.2664 152.442L32.5054 154.687C32.9835 157.641 33.581 160.241 34.298 162.368C35.1345 164.495 36.0906 166.386 37.2856 168.04C38.4807 169.695 39.7952 170.876 41.3488 172.058C42.9024 173.122 44.5755 174.067 46.368 174.776C48.1606 175.485 50.1922 175.84 52.2238 176.194C56.4065 176.667 60.8282 176.194 64.6523 174.894C66.5644 174.303 68.357 173.476 70.0301 172.294C71.7031 171.231 73.1372 170.049 74.3322 168.631C75.5273 167.213 76.6029 165.559 77.4394 163.668C78.2759 161.777 78.7539 159.768 79.1124 157.405C79.232 156.814 79.232 156.223 79.3515 155.514L79.471 152.796L79.8295 147.124C80.0685 143.342 80.3075 139.561 80.666 135.779C81.383 128.216 82.3391 120.653 83.7732 113.209C85.2072 105.764 86.8803 98.2007 88.9119 90.8741C91.063 83.5474 93.5726 76.2208 96.6797 69.1305C102.774 54.9499 111.14 41.3601 122.134 30.0157C125.241 26.9432 130.261 26.825 133.368 29.7793C136.236 32.4973 136.594 36.8696 134.324 39.9421V40.0603C126.556 51.0502 121.298 63.4582 117.593 76.4571C115.801 82.9566 114.366 89.5742 113.291 96.31C112.215 103.046 111.498 109.782 111.02 116.635C110.542 123.489 110.423 130.343 110.423 137.197C110.423 140.624 110.542 144.051 110.662 147.478L110.901 152.678L111.02 155.396C111.02 156.578 111.14 157.759 111.02 158.941C111.02 163.668 110.303 168.867 108.75 173.831C107.316 178.794 105.045 183.639 102.057 188.129C99.0698 192.62 95.2457 196.638 91.063 199.947C86.8803 203.255 82.2196 205.855 77.3199 207.864C67.5204 211.646 57.004 212.827 46.607 211.055C36.3296 209.4 26.1717 204.673 18.2843 197.229C14.3406 193.565 10.9945 189.075 8.48489 184.584C5.97528 179.976 4.30221 175.13 3.22666 170.285C2.15112 165.44 1.7926 160.832 1.7926 156.578C1.7926 152.442 1.91211 147.951 2.62914 143.46C3.34617 138.97 4.42172 134.479 6.09479 129.989C7.88737 125.617 10.158 121.244 13.1456 117.345C16.1332 113.445 19.7184 110.136 23.5425 107.3C27.3667 104.464 31.5494 102.455 35.7321 100.801C44.0974 97.6099 52.4628 96.5463 60.4696 96.4281C62.5012 96.4281 64.5328 96.4281 66.4449 96.5463C68.4765 96.6645 70.3886 96.7827 72.3007 97.1372C74.2127 97.3735 76.2443 97.728 78.1564 98.0826C79.1125 98.2007 80.0685 98.3189 81.0245 98.5552L84.0122 99.2643C86.9998 99.9733 88.9119 103.046 88.1948 106C87.5973 108.482 85.3267 110.254 82.9366 110.254L82.6976 110.491Z" fill="url(#paint0_linear)"/>
<path d="M148.426 17.0166C142.331 29.0701 136.117 45.6141 134.802 58.4949L125.839 37.8148L105.523 27.5339C118.669 27.0612 135.758 22.2162 148.426 17.0166Z" fill="url(#paint1_linear)"/>
<path d="M140.418 177.258V209.637H136.236V177.258H140.418Z" fill="#272727"/>
<path d="M148.067 192.738C148.067 190.375 148.067 188.366 147.828 186.475H151.652L151.891 190.375H152.01C153.205 188.129 155.954 186.002 159.778 186.002C163.005 186.002 168.144 187.893 168.144 195.929V209.755H163.841V196.401C163.841 192.62 162.407 189.547 158.344 189.547C155.476 189.547 153.325 191.556 152.608 193.92C152.369 194.392 152.369 195.22 152.369 195.929V209.873H148.067V192.738Z" fill="#272727"/>
<path d="M176.031 186.357L180.692 199.474C181.528 201.601 182.126 203.492 182.604 205.382H182.723C183.201 203.492 183.918 201.483 184.755 199.474L189.296 186.357H193.718L184.516 209.637H180.453L171.49 186.357H176.031Z" fill="#272727"/>
<path d="M199.693 198.765C199.813 204.437 203.517 206.8 207.7 206.8C210.807 206.8 212.6 206.328 214.153 205.619L214.87 208.691C213.317 209.4 210.807 210.109 207.102 210.109C199.813 210.109 195.51 205.382 195.51 198.41C195.51 191.438 199.693 185.884 206.505 185.884C214.153 185.884 216.185 192.62 216.185 196.874C216.185 197.701 216.065 198.41 216.065 198.883H199.693V198.765ZM212.241 195.81C212.241 193.092 211.166 188.956 206.266 188.956C201.964 188.956 200.052 192.856 199.693 195.81H212.241Z" fill="#272727"/>
<path d="M221.084 205.382C222.399 206.21 224.55 207.037 226.701 207.037C229.808 207.037 231.242 205.501 231.242 203.61C231.242 201.601 230.047 200.537 226.821 199.356C222.638 197.819 220.606 195.574 220.606 192.738C220.606 188.956 223.714 185.884 228.733 185.884C231.123 185.884 233.154 186.593 234.469 187.302L233.394 190.375C232.437 189.784 230.764 189.075 228.613 189.075C226.104 189.075 224.67 190.493 224.67 192.265C224.67 194.156 226.104 195.101 229.091 196.165C233.154 197.701 235.306 199.71 235.306 203.137C235.306 207.273 232.079 210.109 226.462 210.109C223.833 210.109 221.562 209.518 219.889 208.573L221.084 205.382Z" fill="#272727"/>
<path d="M246.061 179.739V186.475H252.156V189.666H246.061V202.192C246.061 205.028 246.898 206.682 249.288 206.682C250.364 206.682 251.2 206.564 251.798 206.446L252.037 209.637C251.2 209.991 249.885 210.227 248.212 210.227C246.181 210.227 244.627 209.637 243.552 208.455C242.357 207.155 241.879 205.146 241.879 202.428V189.784H238.293V186.593H241.879V180.803L246.061 179.739Z" fill="#272727"/>
<path d="M256.936 192.738C256.936 190.375 256.936 188.366 256.697 186.475H260.402L260.641 190.256H260.76C262.075 188.011 264.226 186.002 268.17 186.002C271.396 186.002 273.786 187.893 274.862 190.611H274.981C275.698 189.311 276.654 188.247 277.61 187.538C279.045 186.475 280.598 185.884 282.749 185.884C285.856 185.884 290.517 187.893 290.517 195.929V209.637H286.334V196.519C286.334 192.029 284.661 189.311 281.196 189.311C278.806 189.311 276.893 191.084 276.176 193.211C275.937 193.802 275.818 194.511 275.818 195.338V209.755H271.635V195.81C271.635 192.147 269.962 189.429 266.735 189.429C264.106 189.429 262.075 191.556 261.477 193.683C261.238 194.274 261.119 194.983 261.119 195.692V209.755H256.936V192.738Z" fill="#272727"/>
<path d="M299.838 198.765C299.958 204.437 303.663 206.8 307.845 206.8C310.952 206.8 312.745 206.328 314.299 205.619L315.016 208.691C313.462 209.4 310.952 210.109 307.248 210.109C299.958 210.109 295.656 205.382 295.656 198.41C295.656 191.438 299.838 185.884 306.65 185.884C314.299 185.884 316.33 192.62 316.33 196.874C316.33 197.701 316.211 198.41 316.211 198.883H299.838V198.765ZM312.386 195.81C312.386 193.092 311.311 188.956 306.411 188.956C302.109 188.956 300.197 192.856 299.838 195.81H312.386Z" fill="#272727"/>
<path d="M321.827 192.738C321.827 190.375 321.827 188.366 321.588 186.475H325.413L325.652 190.375H325.771C326.966 188.129 329.715 186.002 333.539 186.002C336.765 186.002 341.904 187.893 341.904 195.929V209.755H337.602V196.401C337.602 192.62 336.168 189.547 332.105 189.547C329.237 189.547 327.086 191.556 326.369 193.92C326.13 194.392 326.13 195.22 326.13 195.929V209.873H321.827V192.738Z" fill="#272727"/>
<path d="M353.735 179.739V186.475H359.83V189.666H353.735V202.192C353.735 205.028 354.572 206.682 356.962 206.682C358.037 206.682 358.874 206.564 359.471 206.446L359.71 209.637C358.874 209.991 357.559 210.227 355.886 210.227C353.855 210.227 352.301 209.637 351.226 208.455C350.03 207.155 349.552 205.146 349.552 202.428V189.784H345.967V186.593H349.552V180.803L353.735 179.739Z" fill="#272727"/>
<path d="M364.013 205.382C365.327 206.21 367.478 207.037 369.63 207.037C372.737 207.037 374.171 205.501 374.171 203.61C374.171 201.601 372.976 200.537 369.749 199.356C365.566 197.819 363.535 195.574 363.535 192.738C363.535 188.956 366.642 185.884 371.661 185.884C374.051 185.884 376.083 186.593 377.397 187.302L376.322 190.375C375.366 189.784 373.693 189.075 371.542 189.075C369.032 189.075 367.598 190.493 367.598 192.265C367.598 194.156 369.032 195.101 372.02 196.165C376.083 197.701 378.234 199.71 378.234 203.137C378.234 207.273 375.007 210.109 369.391 210.109C366.761 210.109 364.491 209.518 362.818 208.573L364.013 205.382Z" fill="#272727"/>
<path d="M394.367 177.258H398.55V206.091H412.532V209.637H394.367V177.258Z" fill="#272727"/>
<path d="M421.853 179.857C421.853 181.275 420.778 182.457 419.105 182.457C417.551 182.457 416.476 181.275 416.476 179.857C416.476 178.321 417.551 177.258 419.105 177.258C420.897 177.258 421.853 178.439 421.853 179.857ZM417.073 209.637V186.357H421.375V209.637H417.073Z" fill="#272727"/>
<path d="M428.426 192.738C428.426 190.375 428.426 188.366 428.187 186.475H431.891L432.13 190.256H432.25C433.564 188.011 435.715 186.002 439.659 186.002C442.886 186.002 445.276 187.893 446.351 190.611H446.471C447.188 189.311 448.144 188.247 449.1 187.538C450.534 186.475 452.088 185.884 454.239 185.884C457.346 185.884 462.007 187.893 462.007 195.929V209.637H457.824V196.519C457.824 192.029 456.151 189.311 452.685 189.311C450.295 189.311 448.383 191.084 447.666 193.211C447.427 193.802 447.308 194.511 447.308 195.338V209.755H443.125V195.81C443.125 192.147 441.452 189.429 438.225 189.429C435.596 189.429 433.564 191.556 432.967 193.683C432.728 194.274 432.608 194.983 432.608 195.692V209.755H428.426V192.738Z" fill="#272727"/>
<path d="M473.719 179.857C473.719 181.275 472.643 182.457 470.97 182.457C469.416 182.457 468.341 181.275 468.341 179.857C468.341 178.321 469.416 177.258 470.97 177.258C472.763 177.258 473.719 178.439 473.719 179.857ZM468.938 209.637V186.357H473.241V209.637H468.938Z" fill="#272727"/>
<path d="M485.549 179.739V186.475H491.644V189.666H485.549V202.192C485.549 205.028 486.386 206.682 488.776 206.682C489.851 206.682 490.688 206.564 491.286 206.446L491.525 209.637C490.688 209.991 489.373 210.227 487.7 210.227C485.669 210.227 484.115 209.637 483.04 208.455C481.845 207.155 481.367 205.146 481.367 202.428V189.784H477.781V186.593H481.367V180.803L485.549 179.739Z" fill="#272727"/>
<path d="M498.456 198.765C498.576 204.437 502.28 206.8 506.463 206.8C509.57 206.8 511.363 206.328 512.916 205.619L513.633 208.691C512.08 209.4 509.57 210.109 505.866 210.109C498.576 210.109 494.274 205.382 494.274 198.41C494.274 191.438 498.456 185.884 505.268 185.884C512.916 185.884 514.948 192.62 514.948 196.874C514.948 197.701 514.828 198.41 514.828 198.883H498.456V198.765ZM511.004 195.81C511.004 193.092 509.929 188.956 505.029 188.956C500.727 188.956 498.815 192.856 498.456 195.81H511.004Z" fill="#272727"/>
<path d="M540.761 175.603V203.728C540.761 205.737 540.761 208.1 541 209.755H537.176L536.937 205.737H536.817C535.503 208.337 532.634 210.346 528.81 210.346C523.074 210.346 518.772 205.619 518.772 198.528C518.772 190.847 523.552 186.002 529.288 186.002C532.873 186.002 535.264 187.657 536.339 189.547H536.459V175.721H540.761V175.603ZM536.459 195.929C536.459 195.456 536.459 194.629 536.22 194.156C535.622 191.438 533.232 189.311 530.005 189.311C525.584 189.311 522.955 193.211 522.955 198.292C522.955 203.019 525.345 206.919 529.886 206.919C532.754 206.919 535.383 205.028 536.1 201.837C536.22 201.246 536.339 200.656 536.339 200.065V195.929H536.459Z" fill="#272727"/>
<path d="M132.173 127.389V106.236C132.173 83.0747 143.287 71.9666 166.71 71.9666C190.133 71.9666 201.247 82.602 201.247 106.236V127.389C201.247 151.142 190.133 161.659 166.71 161.659C143.406 161.659 132.173 151.142 132.173 127.389ZM180.453 126.326V107.3C180.453 96.4281 177.585 90.165 166.71 90.165C155.835 90.165 152.967 96.4281 152.967 107.3V126.326C152.967 137.197 155.835 143.46 166.71 143.46C177.585 143.46 180.453 137.197 180.453 126.326Z" fill="#00A427"/>
<path d="M288.127 160.004H269.723L268.647 151.023C263.031 157.641 255.263 160.595 247.734 160.595C233.154 160.713 218.814 153.15 218.814 126.325V72.0847H239.369V126.207C239.369 137.552 244.149 142.16 252.753 142.16C260.76 142.16 267.094 138.261 267.094 126.916V72.0847H288.246V160.004H288.127Z" fill="#00A427"/>
<path d="M306.889 126.207V45.3779H327.564V79.175C332.105 73.621 339.873 71.3757 347.043 71.3757C366.284 71.3757 375.724 83.4292 375.724 102.337V125.853C375.724 150.314 363.654 160.477 341.187 160.477C318.601 160.595 306.889 150.551 306.889 126.207ZM327.564 104.7V125.735C327.564 136.37 330.551 142.397 341.187 142.397C349.314 142.397 355.05 138.261 355.05 125.498V104.936C355.05 94.1828 350.27 90.2832 341.665 90.165C332.703 90.165 327.564 94.8918 327.564 104.7Z" fill="#00A427"/>
<path d="M394.487 45.2598H415.161V127.744C415.161 137.434 416.954 140.506 425.558 140.506V160.241C401.537 160.241 394.487 153.269 394.487 128.098V45.2598Z" fill="#00A427"/>
<path d="M507.18 133.179C507.18 151.614 496.066 160.477 472.643 160.477C449.22 160.477 438.106 149.842 438.106 126.207V106.236C438.106 84.1382 449.22 71.9666 472.643 71.9666C496.066 71.9666 507.18 82.602 507.18 106.236V123.726H458.9V125.971C458.9 140.152 464.517 142.87 472.882 142.87C482.682 142.87 486.745 139.443 486.745 133.298H507.18V133.179ZM458.9 106.827H487.103C487.103 95.8372 484.952 89.6923 473.241 89.6923C461.051 89.6923 458.9 96.3099 458.9 106.827Z" fill="#00A427"/>
</g>
<defs>
<linearGradient id="paint0_linear" x1="9.68787" y1="100.717" x2="137.903" y2="132.272" gradientUnits="userSpaceOnUse">
<stop stop-color="#009444"/>
<stop offset="0.4872" stop-color="#26A146"/>
<stop offset="1" stop-color="#73BD42"/>
</linearGradient>
<linearGradient id="paint1_linear" x1="31.6841" y1="11.3411" x2="159.899" y2="42.8957" gradientUnits="userSpaceOnUse">
<stop stop-color="#009444"/>
<stop offset="0.4872" stop-color="#26A146"/>
<stop offset="1" stop-color="#73BD42"/>
</linearGradient>
<clipPath id="clip0">
<rect width="541" height="212" fill="white"/>
</clipPath>
</defs>
</svg>
