<svg width="40" height="29" viewBox="0 0 40 29" fill="none" xmlns="http://www.w3.org/2000/svg">
<path d="M3.63636 4.02778V1.59983C3.63969 1.17672 3.83073 0.77175 4.16821 0.472406C4.50568 0.173062 4.96251 0.00337471 5.44 0H38.1964C39.1927 0 40 0.716945 40 1.59983V27.4002C39.9967 27.8233 39.8056 28.2282 39.4682 28.5276C39.1307 28.8269 38.6739 28.9966 38.1964 29H5.44C4.96148 28.9996 4.50272 28.8308 4.16453 28.5309C3.82633 28.2309 3.63636 27.8242 3.63636 27.4002V25.7778H36.3636V6.92778L21.8182 18.5278L3.63636 4.02778ZM0 11.2778H9.09091V14.5H0V11.2778ZM0 19.3333H14.5455V22.5556H0V19.3333Z" fill="#0E692D"/>
</svg>
