<svg width="54" height="54" viewBox="0 0 54 54" fill="none" xmlns="http://www.w3.org/2000/svg">
<g clip-path="url(#clip0)">
<path fill-rule="evenodd" clip-rule="evenodd" d="M12.555 42.66L0 36.18V17.6343L27.945 3.78003L40.5 10.26V28.89L12.555 42.66Z" fill="#0E692D"/>
<path fill-rule="evenodd" clip-rule="evenodd" d="M0 34.8591V36.47L12.5242 42.9132L40.4001 29.221V27.6102L12.5242 41.3024L0 34.8591ZM0 32.0403V33.6512L12.5242 40.0944L40.4001 26.4027V24.7914L12.5242 38.4836L0 32.0403ZM0 26.4022V28.013L12.5242 34.4563L40.4001 20.7646V19.1538L12.5242 32.8455L0 26.4022ZM0 29.221V30.8318L12.5242 37.2751L40.4001 23.5829V21.972L12.5242 35.6648L0 29.221ZM0 23.5834V25.1942L12.5242 31.6375L40.4001 17.9453V16.335L12.5242 30.0267L0 23.5834ZM12.5555 24.3729L0 17.8653V19.4924L12.5555 25.9994L40.5016 12.1716V10.5446L12.5555 24.3729ZM0 20.7646V22.3754L12.5555 28.8187L40.5016 15.1265V13.5156L12.5555 27.2079L0 20.7646Z" fill="#F2F2F2"/>
<path fill-rule="evenodd" clip-rule="evenodd" d="M25.9918 49.6174L13.4989 43.1736V27.3494L41.3062 13.6577L54 20.1415V35.8015L25.9918 49.6174Z" fill="#0E692D"/>
<path fill-rule="evenodd" clip-rule="evenodd" d="M13.5 41.6259V43.2368L26.055 49.68L54 35.9878V34.377L26.055 48.0692L13.5 41.6259ZM13.5 38.8071V40.418L26.055 46.8612L54 33.169V31.5582L26.055 45.2499L13.5 38.8071ZM13.5 33.169V34.7798L26.055 41.2231L54 27.5309V25.92L26.055 39.6123L13.5 33.169ZM13.5 35.9878V37.5986L26.055 44.0424L54 30.3502V28.7394L26.055 42.4311L13.5 35.9878ZM13.5 30.3502V31.961L26.055 38.4043L54 24.7121V23.1012L26.055 36.7935L13.5 30.3502ZM26.055 33.7884L13.5 27.3456V28.9565L26.055 35.3997L54 21.7075V20.0967L26.055 33.7884Z" fill="#F2F2F2"/>
<path opacity="0.1" d="M12.5242 24.3891L0 17.955V36.5007L12.555 42.93L12.5242 24.3891ZM26.0242 33.804L13.5 27.3699V43.1875L26.055 49.6168L26.0242 33.804Z" fill="#0E692D"/>
<path fill-rule="evenodd" clip-rule="evenodd" d="M32.3979 27.3289L26.2618 30.2767L21.0228 27.4579L28.1173 23.9825C28.1173 23.9825 27.6248 22.5677 27.9261 22.3522C27.9207 22.3776 17.4577 27.5859 17.4577 27.5859L26.4125 32.0631L35.6184 27.4606C35.6184 27.4606 34.7172 27.4903 33.9185 27.4574C33.1074 27.425 32.3979 27.3289 32.3979 27.3289ZM39.6587 25.441L50.49 20.25L41.6886 15.4716L32.4913 20.0697C33.8856 19.9978 35.0277 20.5978 35.0277 20.5978L41.5757 17.3902L47.2176 20.2095L39.663 23.8383L39.6587 25.441Z" fill="#F2F2F2"/>
<path d="M34.6869 25.3573C35.0521 25.3685 35.4162 25.3133 35.7615 25.1942L33.8559 24.1844L33.6939 24.2266L33.4865 24.293C33.2041 24.3778 32.9147 24.4561 32.6171 24.5268C32.3196 24.5975 32.0172 24.6418 31.7099 24.6596C31.4027 24.6775 31.0959 24.6591 30.7908 24.6051C30.4711 24.5461 30.1626 24.4374 29.8766 24.2827C29.5667 24.1186 29.3512 23.9425 29.2308 23.7551C29.1104 23.5672 29.0655 23.3804 29.0958 23.1935C29.126 23.0067 29.2232 22.8231 29.3863 22.6433C29.5684 22.4479 29.7777 22.2798 30.0078 22.1443L29.3058 21.7723L29.8356 21.4915L30.5376 21.8635C30.8408 21.7355 31.1539 21.6325 31.4739 21.5557C31.7982 21.4774 32.1294 21.4313 32.4627 21.418C32.804 21.4056 33.1457 21.4304 33.4817 21.492C33.8342 21.5569 34.1766 21.668 34.5001 21.8225L33.2252 22.498C32.9618 22.3688 32.6739 22.2972 32.3806 22.288C32.0669 22.2739 31.8082 22.3209 31.6046 22.4289L33.2187 23.2843L33.4935 23.1968L33.7954 23.1044C34.3597 22.9343 34.8516 22.8334 35.2701 22.801C35.6886 22.7696 36.0526 22.775 36.3609 22.8177C36.6693 22.8609 36.9312 22.9284 37.1466 23.0197C37.3621 23.112 37.5462 23.1984 37.698 23.2789C37.8319 23.3496 37.9675 23.4565 38.1052 23.5996C38.2428 23.7427 38.3238 23.9107 38.3476 24.104C38.3719 24.2973 38.3157 24.5106 38.1807 24.7433C38.0452 24.9761 37.7682 25.2196 37.3502 25.474L38.1251 25.8849L37.5954 26.1657L36.8205 25.7548C36.1012 26.0842 35.3679 26.2505 34.62 26.2537C33.8721 26.2575 33.1096 26.0847 32.332 25.7359L33.5978 25.0652C33.9314 25.2503 34.3054 25.3506 34.6869 25.3573ZM36.5499 24.6937C36.6272 24.611 36.6758 24.5257 36.6957 24.4377C36.7154 24.3478 36.7011 24.2537 36.6558 24.1736C36.6093 24.0856 36.5132 24.003 36.3669 23.9258C36.1361 23.8015 35.8753 23.7439 35.6136 23.7595C35.3484 23.7746 34.9904 23.8496 34.5401 23.9852L36.2907 24.9129C36.3857 24.8506 36.4727 24.777 36.5499 24.6937ZM30.8232 22.8911C30.763 22.9484 30.7216 23.0226 30.7044 23.1039C30.6979 23.1427 30.6992 23.1825 30.7083 23.2208C30.7174 23.2591 30.7341 23.2952 30.7574 23.3269C30.8065 23.4009 30.8951 23.4716 31.023 23.5391C31.2239 23.6455 31.4415 23.6947 31.6764 23.686C31.9113 23.6774 32.2062 23.6142 32.5604 23.4976L31.0738 22.7102C30.9814 22.7571 30.8968 22.8181 30.8232 22.8911Z" fill="#F2F2F2"/>
<path fill-rule="evenodd" clip-rule="evenodd" d="M18.6748 17.6088L12.5388 20.5566L7.29972 17.7378L14.3942 14.2624C14.3942 14.2624 13.9012 12.8476 14.2031 12.6321C14.1977 12.6575 3.73464 17.8658 3.73464 17.8658L12.6895 22.343L21.8954 17.7405C21.8954 17.7405 20.9941 17.7702 20.1955 17.7373C19.3844 17.7049 18.6748 17.6088 18.6748 17.6088ZM25.9357 15.7209L36.767 10.5299L27.9655 5.75146L18.7682 10.3496C20.1625 10.2777 21.3046 10.8777 21.3046 10.8777L27.8527 7.67009L33.4946 10.4894L25.9405 14.1182L25.9357 15.7209Z" fill="#F2F2F2"/>
<path d="M20.9639 15.6373C21.329 15.6488 21.6932 15.5935 22.0385 15.4742L20.1323 14.4644L19.9703 14.5065L19.7629 14.573C19.4755 14.6593 19.1855 14.7372 18.8935 14.8068C18.596 14.8775 18.2936 14.9218 17.9863 14.9396C17.6791 14.9574 17.3729 14.9391 17.0673 14.8851C16.7475 14.8261 16.439 14.7173 16.153 14.5627C15.8431 14.3985 15.6276 14.2225 15.5072 14.0351C15.3868 13.8472 15.342 13.6604 15.3722 13.4735C15.403 13.2867 15.4996 13.1036 15.6627 12.9238C15.8448 12.7284 16.0541 12.5604 16.2843 12.4248L15.5823 12.0528L16.112 11.772L16.814 12.144C17.1172 12.016 17.4304 11.913 17.7504 11.8362C18.0746 11.758 18.4058 11.7118 18.7391 11.6985C19.0804 11.6861 19.4221 11.7109 19.7581 11.7725C20.1106 11.8374 20.453 11.9486 20.7765 12.103L19.5016 12.7785C19.2382 12.6493 18.9503 12.5777 18.657 12.5685C18.3433 12.5544 18.0846 12.6014 17.881 12.7094L19.4951 13.5648L19.77 13.4768L20.0718 13.3844C20.6361 13.2143 21.1281 13.1133 21.5466 13.0809C21.9651 13.0491 22.329 13.055 22.6374 13.0977C22.9457 13.1409 23.2076 13.2084 23.4231 13.3002C23.6385 13.3925 23.8227 13.4789 23.9744 13.5594C24.1083 13.6301 24.2439 13.737 24.3816 13.8801C24.5193 14.0232 24.6003 14.1912 24.624 14.3845C24.6483 14.5778 24.5922 14.7911 24.4572 15.0239C24.3216 15.2566 24.0446 15.5001 23.6266 15.7545L24.4015 16.1654L23.8718 16.4462L23.0969 16.0353C22.3776 16.3647 21.6443 16.531 20.8964 16.5342C20.1485 16.538 19.386 16.3652 18.6084 16.0164L19.8742 15.3457C20.2144 15.532 20.5778 15.6292 20.9639 15.6373ZM22.8269 14.9736C22.9041 14.891 22.9527 14.8057 22.9722 14.7177C22.9918 14.6277 22.9776 14.5337 22.9322 14.4536C22.8858 14.3656 22.7896 14.283 22.6433 14.2052C22.4125 14.081 22.1517 14.0234 21.89 14.0389L20.8165 14.2652L22.5672 15.1929C22.6633 15.1297 22.7497 15.0568 22.8269 14.9736ZM17.1002 13.1711C17.04 13.2284 16.9986 13.3026 16.9814 13.3839C16.9749 13.4227 16.9762 13.4624 16.9853 13.5007C16.9944 13.5391 17.011 13.5752 17.0343 13.6069C17.084 13.6809 17.172 13.7516 17.3 13.8191C17.5009 13.9255 17.7185 13.9746 17.9539 13.966C18.1888 13.9574 18.4837 13.8942 18.8379 13.7775L17.3513 12.9902C17.2586 13.037 17.1739 13.098 17.1002 13.1711Z" fill="#F2F2F2"/>
</g>
<defs>
<clipPath id="clip0">
<rect width="54" height="54" fill="white"/>
</clipPath>
</defs>
</svg>
