<svg width="46" height="34" viewBox="0 0 46 34" fill="none" xmlns="http://www.w3.org/2000/svg">
<path d="M10.625 13.5001C10.1232 13.5001 9.64174 13.5766 9.16249 13.6464C9.31774 13.1244 9.47749 12.5934 9.73399 12.1164C9.99049 11.4234 10.391 10.8226 10.7892 10.2174C11.1222 9.56263 11.7095 9.11938 12.1415 8.55913C12.5937 8.01463 13.2102 7.65238 13.6985 7.20013C14.1777 6.72763 14.8055 6.49138 15.305 6.15838C15.827 5.85913 16.2815 5.52838 16.7675 5.37088L17.9802 4.87138L19.0467 4.42813L17.9555 0.067627L16.6122 0.391626C16.1825 0.499626 15.6582 0.625626 15.062 0.776376C14.4522 0.888876 13.802 1.19713 13.0775 1.47838C12.362 1.79788 11.534 2.01388 10.7645 2.52688C9.99049 3.01738 9.09724 3.42688 8.30974 4.08388C7.54699 4.76113 6.62674 5.34838 5.94724 6.21013C5.20474 7.01563 4.47124 7.86163 3.90199 8.82463C3.24274 9.74263 2.79499 10.7506 2.32249 11.7474C1.89499 12.7441 1.55074 13.7634 1.26949 14.7534C0.736241 16.7379 0.497741 18.6234 0.405491 20.2366C0.328991 21.8521 0.373991 23.1954 0.468491 24.1674C0.502241 24.6264 0.565241 25.0719 0.610241 25.3801L0.666491 25.7581L0.724991 25.7446C1.12518 27.614 2.04642 29.3319 3.38216 30.6995C4.71789 32.0672 6.41353 33.0288 8.27293 33.473C10.1323 33.9172 12.0795 33.8259 13.8892 33.2098C15.6989 32.5936 17.2972 31.4776 18.4991 29.991C19.7011 28.5044 20.4576 26.7079 20.6812 24.8093C20.9048 22.9107 20.5863 20.9876 19.7625 19.2624C18.9388 17.5373 17.6435 16.0806 16.0265 15.0608C14.4094 14.0411 12.5367 13.5 10.625 13.5001ZM35.375 13.5001C34.8732 13.5001 34.3917 13.5766 33.9125 13.6464C34.0677 13.1244 34.2275 12.5934 34.484 12.1164C34.7405 11.4234 35.141 10.8226 35.5392 10.2174C35.8722 9.56263 36.4595 9.11938 36.8915 8.55913C37.3437 8.01463 37.9602 7.65238 38.4485 7.20013C38.9277 6.72763 39.5555 6.49138 40.055 6.15838C40.577 5.85913 41.0315 5.52838 41.5175 5.37088L42.7302 4.87138L43.7967 4.42813L42.7055 0.067627L41.3622 0.391626C40.9325 0.499626 40.4082 0.625626 39.812 0.776376C39.2022 0.888876 38.552 1.19713 37.8275 1.47838C37.1142 1.80013 36.284 2.01388 35.5145 2.52913C34.7405 3.01963 33.8472 3.42913 33.0597 4.08613C32.297 4.76338 31.3767 5.35063 30.6972 6.21013C29.9547 7.01563 29.2212 7.86163 28.652 8.82463C27.9927 9.74263 27.545 10.7506 27.0725 11.7474C26.645 12.7441 26.3007 13.7634 26.0195 14.7534C25.4862 16.7379 25.2477 18.6234 25.1555 20.2366C25.079 21.8521 25.124 23.1954 25.2185 24.1674C25.2522 24.6264 25.3152 25.0719 25.3602 25.3801L25.4165 25.7581L25.475 25.7446C25.8752 27.614 26.7964 29.3319 28.1322 30.6995C29.4679 32.0672 31.1635 33.0288 33.0229 33.473C34.8823 33.9172 36.8295 33.8259 38.6392 33.2098C40.4489 32.5936 42.0471 31.4776 43.2491 29.991C44.4511 28.5044 45.2076 26.7079 45.4312 24.8093C45.6548 22.9107 45.3363 20.9876 44.5125 19.2624C43.6888 17.5373 42.3935 16.0806 40.7765 15.0608C39.1594 14.0411 37.2867 13.5 35.375 13.5001Z" fill="#FDDB3C"/>
</svg>
