<svg width="54" height="54" viewBox="0 0 54 54" fill="none" xmlns="http://www.w3.org/2000/svg">
<path d="M34.0942 28.0057L35.2186 30.8148H29.616C31.6637 27.1413 32.7513 23.011 32.7791 18.8055L36.6429 17.6462V18.8954C36.6429 19.1016 36.6363 19.3069 36.632 19.5131C34.9087 20.1252 33.7556 21.7539 33.75 23.5826V26.2142C33.7495 26.8277 33.8663 27.436 34.0942 28.0057ZM20.25 34.6719C20.2509 35.6569 20.6309 36.6038 21.3108 37.3171C20.953 37.5775 20.6022 37.8473 20.2326 38.0883L18.3214 39.3111L16.414 38.0855C12.1383 35.3443 8.88715 31.2682 7.16575 26.4901L30.8294 19.3907C30.6975 23.4367 29.5035 27.3762 27.3673 30.8148H24.1071C21.9771 30.8148 20.25 32.5418 20.25 34.6719ZM0.523577 24.7753C0.516044 24.7272 0.507097 24.6787 0.499564 24.6326L4.33175 23.4861C4.44523 24.0648 4.58318 24.6434 4.73762 25.2084L0.850342 26.3752C0.723214 25.8215 0.618216 25.2941 0.523577 24.7753ZM0.0791016 20.9016L3.89293 19.757C3.91976 20.3621 3.96402 20.9624 4.03371 21.5585L0.228359 22.7003C0.218942 22.6136 0.211408 22.5275 0.201521 22.4408C0.152553 21.9431 0.107823 21.4389 0.0791016 20.9016ZM30.8571 9.65463L5.78571 17.1759V10.2804L18.3544 5.79136L30.8571 9.36318V9.65463ZM30.8571 11.668V13.5118L5.91708 20.9935C5.85634 20.3945 5.81867 19.7914 5.80314 19.1845L30.8571 11.668ZM36.6429 13.7891V15.6329L32.7857 16.7902V14.9464L36.6429 13.7891ZM36.6429 11.7758L32.7857 12.9331V11.0893L36.6429 9.93195V11.7758ZM6.18687 22.9258L21.8777 18.2193L30.8571 15.5251V17.3689L6.58426 24.651C6.43171 24.0822 6.29564 23.5082 6.18687 22.9258ZM0 5.49662L18.3214 0L36.6429 5.49662V7.91863L32.7857 9.07596V8.6362C32.7857 8.20584 32.5004 7.82776 32.0865 7.70958L18.5865 3.85243C18.393 3.79593 18.1868 3.80253 17.9975 3.8708L4.49749 8.69223C4.11328 8.82924 3.85714 9.19273 3.85714 9.60048V17.7545L0 18.9114L0 5.49662ZM18.3214 49.0185C10.0158 44.7517 3.85149 37.2314 1.29811 28.2496L5.31628 27.0443C7.16999 32.264 10.7074 36.7187 15.3707 39.7076L17.7997 41.2684C18.1176 41.4728 18.5253 41.4728 18.8431 41.2684L21.2722 39.7076L21.2972 39.6911C20.9577 41.291 21.6767 42.9291 23.084 43.762C22.4987 44.4565 22.1781 45.3351 22.1786 46.2433C22.1805 46.3775 22.1894 46.5112 22.2054 46.6445C20.9652 47.5217 19.6676 48.315 18.3214 49.0185ZM43.1038 53.9576H27C25.935 53.9576 25.0714 53.0941 25.0714 52.029C25.0695 51.0276 25.8413 50.1951 26.8399 50.1207C27.3583 50.0671 27.7449 49.6188 27.7223 49.0985C27.702 48.5806 27.2764 48.1714 26.758 48.1719H26.0357C24.9707 48.1719 24.1071 47.3084 24.1071 46.2433C24.1071 45.1783 24.9707 44.3148 26.0357 44.3148C26.5682 44.3148 27 43.883 27 43.3505C27 42.818 26.5682 42.3862 26.0357 42.3862H25.0714C24.0064 42.3862 23.1429 41.5227 23.1429 40.4576C23.1429 39.3926 24.0064 38.5291 25.0714 38.5291C25.604 38.5291 26.0357 38.0973 26.0357 37.5648C26.0357 37.0322 25.604 36.6005 25.0714 36.6005H24.1071C23.0421 36.6005 22.1786 35.737 22.1786 34.6719C22.1786 33.6069 23.0421 32.7433 24.1071 32.7433H36.6429C36.963 32.7433 37.2625 32.5847 37.4419 32.3196C37.6217 32.0545 37.658 31.7174 37.5389 31.4203L35.8857 27.2891C35.7483 26.9477 35.6781 26.5824 35.6786 26.2142V23.5826C35.6786 22.2511 36.7577 21.1719 38.0893 21.1719C39.4208 21.1719 40.5 22.2511 40.5 23.5826V26.9576C40.5 27.0805 40.5231 27.202 40.5683 27.3164L42.4968 32.1378C42.6033 32.4006 42.8194 32.604 43.0882 32.6939L48.2143 34.4026V50.5487L43.1038 53.9576ZM54 50.1005H50.1429V34.6719H54V50.1005Z" fill="#0E692D"/>
</svg>
