<svg width="54" height="36" viewBox="0 0 54 36" fill="none" xmlns="http://www.w3.org/2000/svg">
<path d="M51.8519 21.4497C51.8519 21.4497 51.3006 20.6995 49.9961 20.1994C49.9961 20.1994 49.8876 20.1663 49.7189 20.112C48.556 19.5667 47.4534 19.2173 47.4534 19.2173C47.2184 19.1329 47.0135 19.0485 46.8207 18.9672C46.0344 18.5755 45.465 18.1266 45.465 18.1266C45.465 18.1266 45.4589 18.1206 44.8534 17.5151C45.941 16.3883 46.7393 14.8578 46.9894 13.3937C47.1822 13.1948 47.378 12.8755 47.4624 12.3663C47.6191 11.7999 47.8149 10.8088 47.4684 10.3478C47.4473 10.3237 47.4293 10.3026 47.4082 10.2815C47.7335 9.08849 48.1493 6.62408 46.6731 4.94299C46.5405 4.77427 45.715 3.7861 43.9435 3.26189L43.1 2.96965C41.7051 2.53884 40.8284 2.44544 40.7922 2.43941C40.729 2.43339 40.6627 2.43942 40.6024 2.45448C40.5542 2.46954 40.3885 2.51172 40.262 2.49364C39.9276 2.44544 39.4275 2.61717 39.3371 2.65332C39.2226 2.69851 36.5232 3.78008 35.7068 6.29269C35.6314 6.49454 35.3031 7.56405 35.7369 10.1851C35.6736 10.2273 35.6164 10.2815 35.5621 10.3478C35.2127 10.8088 35.4085 11.7939 35.5682 12.3633C35.6495 12.8664 35.8453 13.1828 36.0351 13.3846C36.2521 14.8307 36.945 16.2226 37.8578 17.2891C37.8578 17.2891 38.5508 18.4882 38.6381 18.5996C40.8344 21.8534 41.1116 28.1259 41.1387 28.8308L41.1417 28.876L41.1387 28.9242C41.1025 31.1175 40.0119 31.8797 39.4275 32.1328C39.1443 32.2593 38.849 32.3708 38.5508 32.4853C38.6984 32.2684 38.843 31.8918 38.852 31.226C38.852 31.226 38.6381 22.01 36.7793 19.2594C36.7793 19.2594 36.2491 18.5364 34.9927 18.0574C34.9927 18.0574 34.8903 18.0242 34.7246 17.973C33.6099 17.4488 32.5494 17.1144 32.5494 17.1144C32.3235 17.033 32.1216 16.9547 31.9409 16.8734C31.1877 16.4968 30.6364 16.0659 30.6364 16.0659C30.6364 16.0659 30.6303 16.0599 30.0489 15.4755C31.0943 14.3909 31.8625 12.9207 32.1005 11.5167C32.2903 11.3269 32.4771 11.0166 32.5585 10.5286C32.7061 9.98327 32.8959 9.03125 32.5615 8.58838C32.5434 8.56729 32.5253 8.5462 32.5073 8.52511C32.8206 7.37726 33.2183 5.00927 31.7993 3.39143C31.6697 3.23176 30.8744 2.27974 29.1752 1.77662L28.3617 1.49945C27.0241 1.0867 26.1805 0.993309 26.1444 0.990297C26.0841 0.984271 26.0209 0.990297 25.9606 1.00837C25.9124 1.02042 25.7557 1.0626 25.6322 1.04754C25.3129 0.999335 24.8308 1.16503 24.7465 1.19817C24.638 1.24035 22.0441 2.27974 21.2578 4.69594C21.1854 4.89177 20.8721 5.91911 21.2879 8.43774C21.2246 8.47992 21.1704 8.53114 21.1222 8.5944C20.7878 9.03426 20.9776 9.98628 21.1252 10.5316C21.2065 11.0166 21.3933 11.3239 21.5771 11.5137C21.785 12.9026 22.4508 14.2433 23.3305 15.2676L23.0805 15.6502L23.0744 15.6261L23.0654 15.6773C23.0684 15.6683 23.0744 15.6562 23.0774 15.6502V15.6532L23.0624 15.6773C22.7099 16.777 18.4891 18.0604 18.4891 18.0604C17.2358 18.5394 16.7055 19.2624 16.7055 19.2624C14.8497 22.0131 14.6328 31.226 14.6328 31.226C14.6418 31.8857 14.7834 32.2563 14.925 32.4732C14.6388 32.3678 14.3466 32.2593 14.0724 32.1388C13.4879 31.8857 12.3943 31.1175 12.3612 28.9272V28.879V28.8308C12.3883 28.1259 12.6685 21.8594 14.8226 18.6599C14.9401 18.4972 15.3257 18.0152 16.0367 17.5181C16.0367 17.5181 16.0367 17.5151 16.0337 17.5151C17.1213 16.3883 17.9197 14.8578 18.1697 13.3937C18.3625 13.1948 18.5584 12.8755 18.6457 12.3663C18.8024 11.7999 18.9982 10.8088 18.6487 10.3478C18.6307 10.3237 18.6096 10.3026 18.5915 10.2815C18.9169 9.08849 19.3326 6.62408 17.8564 4.94299C17.7329 4.77427 16.9044 3.7861 15.1329 3.26189L14.2893 2.96965C12.8944 2.53884 12.0177 2.44544 11.9816 2.43941C11.9183 2.43339 11.852 2.43942 11.7918 2.45448C11.7436 2.47256 11.5779 2.51473 11.4483 2.49666C11.1169 2.44845 10.6168 2.62018 10.5264 2.65633C10.412 2.69851 7.71558 3.78008 6.89612 6.2957C6.8208 6.49755 6.49543 7.56707 6.92624 10.1881C6.86298 10.2303 6.80272 10.2845 6.75151 10.3508C6.40203 10.8118 6.60087 11.7969 6.75452 12.3663C6.83586 12.8695 7.03169 13.1858 7.22149 13.3876C7.43841 14.8337 8.13133 16.2256 9.0472 17.2921L8.78811 17.6898L8.78208 17.6627L8.77003 17.7169C8.77304 17.7079 8.78208 17.6958 8.78509 17.6868V17.6898L8.77003 17.7169C8.40549 18.8618 4.01294 20.1964 4.01294 20.1964C2.70844 20.6965 2.15711 21.4467 2.15711 21.4467C0.225954 24.3088 0 30.6807 0 30.6807C0.0241018 32.1328 0.65376 32.2864 0.65376 32.2864C5.0915 34.2658 12.0569 34.6153 12.0569 34.6153C12.4335 34.6273 12.78 34.6062 13.1294 34.5851L13.1385 34.6213C13.1385 34.6213 15.7595 34.4857 18.8054 33.9284C22.4779 34.8171 26.2167 35.0069 26.2167 35.0069C26.5752 35.016 26.9126 34.9949 27.247 34.9738L27.2561 35.0099C27.2561 35.0099 31.1576 34.8111 34.9024 33.8681C38.0748 34.4737 40.8645 34.6153 40.8645 34.6153C41.2381 34.6273 41.5876 34.6062 41.9371 34.5851L41.9461 34.6213C41.9461 34.6213 48.9115 34.2688 53.3493 32.2925C53.3493 32.2925 53.9759 32.1388 54 30.6837C54.009 30.6867 53.7831 24.3148 51.8519 21.4497Z" fill="#0E692D"/>
</svg>
