<svg width="54" height="54" viewBox="0 0 54 54" fill="none" xmlns="http://www.w3.org/2000/svg">
<path d="M50.3613 40.5C49.6582 41.6953 48.6387 42.4775 47.3027 42.8467C45.9668 43.2158 44.6924 43.0488 43.4795 42.3457C42.2666 41.6426 41.4756 40.6143 41.1064 39.2607C40.7373 37.9072 40.9043 36.6328 41.6074 35.4375C43.752 31.7109 44.9473 27.7295 45.1934 23.4932C45.4395 19.2568 44.7451 15.2227 43.1104 11.3906C41.4756 7.55859 39.0586 4.27148 35.8594 1.5293C37.5117 2.0918 39.0586 2.79492 40.5 3.63867C43.6641 5.4668 46.3359 7.83105 48.5156 10.7314C50.6953 13.6318 52.2246 16.7256 53.1035 20.0127C53.9824 23.2998 54.2021 26.7451 53.7627 30.3486C53.3232 33.9521 52.1895 37.3359 50.3613 40.5ZM40.5 50.3613C37.3359 52.1895 33.9521 53.3232 30.3486 53.7627C26.7451 54.2021 23.2998 53.9824 20.0127 53.1035C16.7256 52.2246 13.6318 50.6953 10.7314 48.5156C7.83105 46.3359 5.4668 43.6641 3.63867 40.5C2.93555 39.3047 2.75977 38.0303 3.11133 36.6768C3.46289 35.3232 4.24512 34.2949 5.45801 33.5918C6.6709 32.8887 7.9541 32.7217 9.30762 33.0908C10.6611 33.46 11.6895 34.2422 12.3926 35.4375C14.0098 38.25 16.0488 40.6758 18.5098 42.7148C20.9707 44.7539 23.625 46.2744 26.4727 47.2764C29.3203 48.2783 32.3174 48.8232 35.4639 48.9111C38.6104 48.999 41.6602 48.498 44.6133 47.4082C43.3125 48.5684 41.9414 49.5527 40.5 50.3613ZM27 10.125C22.6758 10.125 18.624 11.083 14.8447 12.999C11.0654 14.915 7.92773 17.5342 5.43164 20.8564C2.93555 24.1787 1.2832 27.9141 0.474609 32.0625C0.158203 30.3398 0 28.6523 0 27C0 23.3438 0.711914 19.8457 2.13574 16.5059C3.55957 13.166 5.47559 10.292 7.88379 7.88379C10.292 5.47559 13.166 3.55957 16.5059 2.13574C19.8457 0.711914 23.3438 0 27 0C28.4062 0 29.6016 0.492188 30.5859 1.47656C31.5703 2.46094 32.0625 3.65625 32.0625 5.0625C32.0625 6.46875 31.5703 7.66406 30.5859 8.64844C29.6016 9.63281 28.4062 10.125 27 10.125Z" fill="#0E692D"/>
</svg>
