<svg width="41" height="39" viewBox="0 0 41 39" fill="none" xmlns="http://www.w3.org/2000/svg">
<path d="M39.825 21.0375L37.575 23.2875L32.9625 18.675L35.2125 16.425C35.4438 16.1983 35.7548 16.0712 36.0788 16.0712C36.4027 16.0712 36.7137 16.1983 36.945 16.425L39.825 19.305C40.2975 19.7775 40.2975 20.565 39.825 21.0375ZM18 33.615L31.635 19.98L36.2475 24.5925L22.635 38.25H18V33.615ZM18 22.5C8.055 22.5 0 26.5275 0 31.5V36H13.5V31.7475L22.5 22.7475C21.015 22.5675 19.5075 22.5 18 22.5ZM18 0C15.6131 0 13.3239 0.948211 11.636 2.63604C9.94821 4.32387 9 6.61305 9 9C9 11.3869 9.94821 13.6761 11.636 15.364C13.3239 17.0518 15.6131 18 18 18C20.387 18 22.6761 17.0518 24.364 15.364C26.0518 13.6761 27 11.3869 27 9C27 6.61305 26.0518 4.32387 24.364 2.63604C22.6761 0.948211 20.387 0 18 0Z" fill="#0E692D"/>
</svg>
