<svg width="50" height="51" viewBox="0 0 50 51" fill="none" xmlns="http://www.w3.org/2000/svg">
<g clip-path="url(#clip0)">
<g filter="url(#filter0_f)">
<path d="M1.22989 49.0235L4.58047 36.7981C2.52032 33.2208 1.42227 29.1571 1.4336 25.0028C1.4336 11.9849 12.0289 1.40088 25.0469 1.40088C31.3633 1.40088 37.2949 3.85732 41.7438 8.31729C46.2037 12.7772 48.6602 18.7089 48.6488 25.0142C48.6488 38.0319 38.0533 48.6161 25.0356 48.6161H25.0242C21.0736 48.6161 17.1908 47.62 13.7383 45.7407L1.22989 49.0235ZM14.327 41.4618L15.04 41.8921C18.0512 43.6806 21.5037 44.62 25.0242 44.6313H25.0356C35.8461 44.6313 44.6527 35.8358 44.6527 25.0142C44.6527 19.7729 42.6152 14.8489 38.9137 11.1358C35.2121 7.42295 30.2766 5.38545 25.0356 5.38545C14.2137 5.38545 5.40684 14.181 5.40684 25.0026C5.40684 28.7044 6.43692 32.3153 8.40665 35.4397L8.87071 36.1868L6.88985 43.4202L14.327 41.4618Z" fill="black" fill-opacity="0.24"/>
</g>
<path d="M2.30096 47.7616L5.49823 36.1015C3.52671 32.6814 2.48959 28.8028 2.491 24.8552C2.491 12.446 12.5973 2.35107 24.9949 2.35107C31.0207 2.35107 36.6664 4.69873 40.9144 8.94678C45.1625 13.195 47.4992 18.8519 47.4992 24.8663C47.4992 37.2753 37.393 47.3702 24.9951 47.3702H24.984C21.2164 47.3702 17.516 46.42 14.2293 44.6313L2.30096 47.7618V47.7616Z" fill="url(#paint0_linear)"/>
<path d="M1.48492 48.5773L4.79391 36.5037C2.75934 32.9711 1.67477 28.9576 1.6861 24.8549C1.6861 11.9986 12.15 1.5459 25.0064 1.5459C31.2443 1.5459 37.1021 3.97168 41.4959 8.37637C45.9004 12.7811 48.3263 18.6391 48.3152 24.866C48.3152 37.7223 37.8513 48.175 24.9949 48.175H24.9839C21.0899 48.1735 17.2581 47.1973 13.838 45.3354L1.48492 48.5775V48.5773ZM14.4193 41.1096L15.1236 41.5344C18.0974 43.3008 21.507 44.2287 24.9839 44.2398H24.9951C35.6713 44.2398 44.3689 35.5535 44.3689 24.866C44.3689 19.69 42.3566 14.827 38.7009 11.1602C35.0453 7.49336 30.1711 5.48105 24.9951 5.48105C14.3076 5.48105 5.61012 14.1674 5.61012 24.8549C5.61012 28.5105 6.62731 32.0768 8.57262 35.1621L9.03102 35.9L7.07457 43.0436L14.4193 41.1096Z" fill="white"/>
<path d="M19.1707 15.0955C18.7346 14.1229 18.2762 14.1004 17.8627 14.0893C17.5273 14.0781 17.1361 14.0781 16.7447 14.0781C16.3535 14.0781 15.7273 14.2234 15.1908 14.8047C14.6541 15.3861 13.156 16.7947 13.156 19.668C13.156 22.5297 15.2467 25.3022 15.5373 25.6934C15.8279 26.0848 19.573 32.1551 25.4869 34.4916C30.4058 36.4369 31.4121 36.0455 32.474 35.9449C33.5473 35.8443 35.9174 34.5363 36.4092 33.1725C36.8898 31.8086 36.8898 30.6459 36.7445 30.4C36.5992 30.1539 36.208 30.0088 35.6266 29.718C35.0453 29.4274 32.1834 28.0188 31.6469 27.8176C31.1101 27.6164 30.7189 27.527 30.3389 28.1082C29.9474 28.6895 28.8297 29.9975 28.4941 30.3889C28.1588 30.7801 27.8123 30.8248 27.2308 30.5342C26.6496 30.2436 24.7715 29.6285 22.5469 27.6387C20.814 26.0959 19.6402 24.1842 19.3047 23.6029C18.9693 23.0217 19.2713 22.7084 19.5619 22.418C19.8189 22.1607 20.1431 21.7359 20.434 21.4006C20.7246 21.0652 20.8252 20.8193 21.0152 20.4279C21.2053 20.0367 21.1158 19.7014 20.9705 19.4107C20.8252 19.1199 19.6849 16.2469 19.1707 15.0955Z" fill="white"/>
</g>
<defs>
<filter id="filter0_f" x="-4.77011" y="-4.59912" width="59.419" height="59.6227" filterUnits="userSpaceOnUse" color-interpolation-filters="sRGB">
<feFlood flood-opacity="0" result="BackgroundImageFix"/>
<feBlend mode="normal" in="SourceGraphic" in2="BackgroundImageFix" result="shape"/>
<feGaussianBlur stdDeviation="3" result="effect1_foregroundBlur"/>
</filter>
<linearGradient id="paint0_linear" x1="24.8992" y1="47.7586" x2="24.8992" y2="2.34835" gradientUnits="userSpaceOnUse">
<stop stop-color="#20B038"/>
<stop offset="1" stop-color="#60D66A"/>
</linearGradient>
<clipPath id="clip0">
<rect width="50" height="50.1953" fill="white"/>
</clipPath>
</defs>
</svg>
